<svg xmlns="http://www.w3.org/2000/svg" viewBox="0 0 400 300" width="400" height="300"><line x1="14.0" y1="276.0" x2="386.0" y2="276.0" stroke="#FFFFFF" stroke-width="3" stroke-linecap="round" stroke-opacity="0.35"/><rect x="91.2" y="191.7" width="70.0" height="10.0" rx="4" fill="#FFFFFF" fill-opacity="0.6"/><rect x="101.2" y="201.7" width="8.0" height="74.3" rx="2" fill="#FFFFFF" fill-opacity="0.45"/><rect x="143.2" y="201.7" width="8.0" height="74.3" rx="2" fill="#FFFFFF" fill-opacity="0.45"/><line x1="210.2" y1="199.1" x2="266.0" y2="194.3" stroke="#FFFFFF" stroke-width="14" stroke-linecap="round" stroke-opacity="0.6"/><polyline points="211.4,213.1 267.2,208.2 262.5,262.0 276.5,262.0" fill="none" stroke="#FFFFFF" stroke-width="14" stroke-linecap="round" stroke-linejoin="round" stroke-opacity="0.42"/><polyline points="146.2,182.7 125.2,219.0 158.1,238.0 166.7,243.0" fill="none" stroke="#FFFFFF" stroke-width="12" stroke-linecap="round" stroke-linejoin="round" stroke-opacity="0.42"/><line x1="211.4" y1="213.1" x2="146.2" y2="182.7" stroke="#FFFFFF" stroke-width="26" stroke-linecap="round" stroke-opacity="1.0"/><circle cx="211.4" cy="213.1" r="10" fill="#CCFF3D" fill-opacity="1.0"/><line x1="146.2" y1="182.7" x2="137.1" y2="178.4" stroke="#FFFFFF" stroke-width="10" stroke-linecap="round" stroke-opacity="1.0"/><circle cx="123.5" cy="172.1" r="15" fill="#FFFFFF" fill-opacity="1.0"/><polyline points="211.4,213.1 267.2,208.2 262.5,262.0 276.5,262.0" fill="none" stroke="#FFFFFF" stroke-width="14" stroke-linecap="round" stroke-linejoin="round" stroke-opacity="1.0"/><polyline points="146.2,182.7 125.2,219.0 158.1,238.0 166.7,243.0" fill="none" stroke="#FFFFFF" stroke-width="12" stroke-linecap="round" stroke-linejoin="round" stroke-opacity="1.0"/></svg>
