<svg xmlns="http://www.w3.org/2000/svg" viewBox="0 0 400 300" width="400" height="300"><line x1="14.0" y1="276.0" x2="386.0" y2="276.0" stroke="#FFFFFF" stroke-width="3" stroke-linecap="round" stroke-opacity="0.35"/><circle cx="202.6" cy="200.4" r="22" fill="#FFFFFF" fill-opacity="0.5"/><circle cx="202.6" cy="200.4" r="5" fill="#FFFFFF" fill-opacity="0.9"/><polyline points="175.8,180.2 224.2,208.2 197.2,255.0 209.4,262.0" fill="none" stroke="#FFFFFF" stroke-width="14" stroke-linecap="round" stroke-linejoin="round" stroke-opacity="0.42"/><polyline points="209.6,116.7 208.1,158.6 206.8,196.6 206.4,206.6" fill="none" stroke="#FFFFFF" stroke-width="12" stroke-linecap="round" stroke-linejoin="round" stroke-opacity="0.42"/><line x1="175.8" y1="180.2" x2="224.2" y2="208.2" stroke="#CCFF3D" stroke-width="8" stroke-linecap="round" stroke-opacity="0.6"/><line x1="175.8" y1="180.2" x2="209.6" y2="116.7" stroke="#FFFFFF" stroke-width="26" stroke-linecap="round" stroke-opacity="1.0"/><circle cx="175.8" cy="180.2" r="10" fill="#CCFF3D" fill-opacity="1.0"/><line x1="209.6" y1="116.7" x2="214.2" y2="107.8" stroke="#FFFFFF" stroke-width="10" stroke-linecap="round" stroke-opacity="1.0"/><circle cx="221.3" cy="94.6" r="15" fill="#FFFFFF" fill-opacity="1.0"/><polyline points="175.8,180.2 224.2,208.2 197.2,255.0 209.4,262.0" fill="none" stroke="#FFFFFF" stroke-width="14" stroke-linecap="round" stroke-linejoin="round" stroke-opacity="1.0"/><polyline points="209.6,116.7 205.9,158.5 202.6,196.4 201.7,206.3" fill="none" stroke="#FFFFFF" stroke-width="12" stroke-linecap="round" stroke-linejoin="round" stroke-opacity="1.0"/><line x1="175.8" y1="180.2" x2="224.2" y2="208.2" stroke="#CCFF3D" stroke-width="8" stroke-linecap="round" stroke-opacity="1.0"/></svg>
