<svg xmlns="http://www.w3.org/2000/svg" viewBox="0 0 400 300" width="400" height="300"><line x1="14.0" y1="276.0" x2="386.0" y2="276.0" stroke="#FFFFFF" stroke-width="3" stroke-linecap="round" stroke-opacity="0.35"/><rect x="71.9" y="273.0" width="250.0" height="6.0" rx="3" fill="#FFFFFF" fill-opacity="0.4"/><polyline points="181.9,211.2 153.9,259.7 99.9,259.7 85.9,259.7" fill="none" stroke="#FFFFFF" stroke-width="14" stroke-linecap="round" stroke-linejoin="round" stroke-opacity="0.42"/><polyline points="251.7,193.8 266.1,233.3 304.1,233.3 314.1,233.3" fill="none" stroke="#FFFFFF" stroke-width="12" stroke-linecap="round" stroke-linejoin="round" stroke-opacity="0.42"/><line x1="181.9" y1="211.2" x2="153.9" y2="259.7" stroke="#0B7A4B" stroke-width="8" stroke-linecap="round" stroke-opacity="0.6"/><line x1="181.9" y1="211.2" x2="251.7" y2="193.8" stroke="#FFFFFF" stroke-width="26" stroke-linecap="round" stroke-opacity="1.0"/><line x1="251.7" y1="193.8" x2="261.5" y2="191.4" stroke="#FFFFFF" stroke-width="10" stroke-linecap="round" stroke-opacity="1.0"/><circle cx="276.0" cy="187.8" r="15" fill="#FFFFFF" fill-opacity="1.0"/><polyline points="181.9,211.2 158.2,262.0 104.2,262.0 90.2,262.0" fill="none" stroke="#FFFFFF" stroke-width="14" stroke-linecap="round" stroke-linejoin="round" stroke-opacity="1.0"/><polyline points="251.7,193.8 266.1,233.3 304.1,233.3 314.1,233.3" fill="none" stroke="#FFFFFF" stroke-width="12" stroke-linecap="round" stroke-linejoin="round" stroke-opacity="1.0"/><line x1="181.9" y1="211.2" x2="158.2" y2="262.0" stroke="#0B7A4B" stroke-width="8" stroke-linecap="round" stroke-opacity="1.0"/></svg>
