<svg xmlns="http://www.w3.org/2000/svg" viewBox="0 0 400 300" width="400" height="300"><line x1="14.0" y1="276.0" x2="386.0" y2="276.0" stroke="#FFFFFF" stroke-width="3" stroke-linecap="round" stroke-opacity="0.35"/><line x1="174.8" y1="27.8" x2="174.8" y2="276.0" stroke="#FFFFFF" stroke-width="8" stroke-linecap="butt" stroke-opacity="0.45"/><rect x="142.9" y="20.0" width="12.0" height="256.0" rx="2" fill="#FFFFFF" fill-opacity="0.4"/><polyline points="206.9,153.8 192.5,207.9 197.2,261.7 211.2,261.7" fill="none" stroke="#FFFFFF" stroke-width="14" stroke-linecap="round" stroke-linejoin="round" stroke-opacity="0.42"/><polyline points="219.4,82.9 219.4,124.9 219.4,162.9 219.4,172.9" fill="none" stroke="#FFFFFF" stroke-width="12" stroke-linecap="round" stroke-linejoin="round" stroke-opacity="0.42"/><line x1="206.9" y1="153.8" x2="219.4" y2="82.9" stroke="#FFFFFF" stroke-width="26" stroke-linecap="round" stroke-opacity="1.0"/><line x1="206.9" y1="153.8" x2="219.4" y2="82.9" stroke="#0B7A4B" stroke-width="18" stroke-linecap="round" stroke-opacity="1.0"/><line x1="219.4" y1="82.9" x2="221.2" y2="73.1" stroke="#FFFFFF" stroke-width="10" stroke-linecap="round" stroke-opacity="1.0"/><circle cx="223.8" cy="58.3" r="15" fill="#FFFFFF" fill-opacity="1.0"/><polyline points="206.9,153.8 226.1,206.5 207.6,257.2 220.8,262.0" fill="none" stroke="#FFFFFF" stroke-width="14" stroke-linecap="round" stroke-linejoin="round" stroke-opacity="1.0"/><polyline points="219.4,82.9 178.1,75.6 174.8,37.8 173.9,27.8" fill="none" stroke="#FFFFFF" stroke-width="12" stroke-linecap="round" stroke-linejoin="round" stroke-opacity="1.0"/><circle cx="219.4" cy="82.9" r="9" fill="#0B7A4B" fill-opacity="1.0"/></svg>
