<svg xmlns="http://www.w3.org/2000/svg" viewBox="0 0 400 300" width="400" height="300"><line x1="14.0" y1="276.0" x2="386.0" y2="276.0" stroke="#FFFFFF" stroke-width="3" stroke-linecap="round" stroke-opacity="0.35"/><polyline points="172.3,214.5 227.7,206.7 207.5,256.8 220.5,262.0" fill="none" stroke="#FFFFFF" stroke-width="14" stroke-linecap="round" stroke-linejoin="round" stroke-opacity="0.42"/><polyline points="194.5,146.0 212.3,184.1 218.9,146.6 220.6,136.8" fill="none" stroke="#FFFFFF" stroke-width="12" stroke-linecap="round" stroke-linejoin="round" stroke-opacity="0.42"/><line x1="172.3" y1="214.5" x2="227.7" y2="206.7" stroke="#CCFF3D" stroke-width="8" stroke-linecap="round" stroke-opacity="0.6"/><line x1="227.7" y1="206.7" x2="207.5" y2="256.8" stroke="#CCFF3D" stroke-width="8" stroke-linecap="round" stroke-opacity="0.6"/><line x1="172.3" y1="214.5" x2="194.5" y2="146.0" stroke="#FFFFFF" stroke-width="26" stroke-linecap="round" stroke-opacity="1.0"/><line x1="194.5" y1="146.0" x2="197.6" y2="136.5" stroke="#FFFFFF" stroke-width="10" stroke-linecap="round" stroke-opacity="1.0"/><circle cx="202.2" cy="122.2" r="15" fill="#FFFFFF" fill-opacity="1.0"/><polyline points="172.3,214.5 227.0,202.8 208.6,253.6 221.7,258.4" fill="none" stroke="#FFFFFF" stroke-width="14" stroke-linecap="round" stroke-linejoin="round" stroke-opacity="1.0"/><polyline points="194.5,146.0 208.9,185.5 215.5,148.0 217.2,138.2" fill="none" stroke="#FFFFFF" stroke-width="12" stroke-linecap="round" stroke-linejoin="round" stroke-opacity="1.0"/><line x1="172.3" y1="214.5" x2="227.0" y2="202.8" stroke="#CCFF3D" stroke-width="8" stroke-linecap="round" stroke-opacity="1.0"/><line x1="227.0" y1="202.8" x2="208.6" y2="253.6" stroke="#CCFF3D" stroke-width="8" stroke-linecap="round" stroke-opacity="1.0"/></svg>
