<svg xmlns="http://www.w3.org/2000/svg" viewBox="0 0 400 300" width="400" height="300"><g transform="translate(200.0 276) scale(0.84) translate(-200.0 -276)"><line x1="170.0" y1="30.0" x2="230.0" y2="30.0" stroke="#FFFFFF" stroke-width="6" stroke-linecap="round" stroke-opacity="0.8"/><line x1="170.0" y1="30.0" x2="170.0" y2="0.0" stroke="#FFFFFF" stroke-width="5" stroke-linecap="butt" stroke-opacity="0.4"/><line x1="230.0" y1="30.0" x2="230.0" y2="0.0" stroke="#FFFFFF" stroke-width="5" stroke-linecap="butt" stroke-opacity="0.4"/><polyline points="201.8,181.4 257.0,171.6 247.6,224.8 261.4,227.2" fill="none" stroke="#FFFFFF" stroke-width="14" stroke-linecap="round" stroke-linejoin="round" stroke-opacity="0.42"/><polyline points="194.3,109.7 195.7,67.8 197.1,29.8 197.4,19.8" fill="none" stroke="#FFFFFF" stroke-width="12" stroke-linecap="round" stroke-linejoin="round" stroke-opacity="0.42"/><line x1="201.8" y1="181.4" x2="257.0" y2="171.6" stroke="#CCFF3D" stroke-width="8" stroke-linecap="round" stroke-opacity="0.6"/><line x1="201.8" y1="181.4" x2="194.3" y2="109.7" stroke="#FFFFFF" stroke-width="26" stroke-linecap="round" stroke-opacity="1.0"/><line x1="201.8" y1="181.4" x2="194.3" y2="109.7" stroke="#CCFF3D" stroke-width="18" stroke-linecap="round" stroke-opacity="1.0"/><line x1="194.3" y1="109.7" x2="193.2" y2="99.8" stroke="#FFFFFF" stroke-width="10" stroke-linecap="round" stroke-opacity="1.0"/><circle cx="191.7" cy="84.9" r="15" fill="#FFFFFF" fill-opacity="1.0"/><polyline points="201.8,181.4 255.9,166.9 251.2,220.7 265.1,221.9" fill="none" stroke="#FFFFFF" stroke-width="14" stroke-linecap="round" stroke-linejoin="round" stroke-opacity="1.0"/><polyline points="194.3,109.7 198.7,68.0 200.0,30.0 200.3,20.0" fill="none" stroke="#FFFFFF" stroke-width="12" stroke-linecap="round" stroke-linejoin="round" stroke-opacity="1.0"/><line x1="201.8" y1="181.4" x2="255.9" y2="166.9" stroke="#CCFF3D" stroke-width="8" stroke-linecap="round" stroke-opacity="1.0"/></g></svg>
