<svg xmlns="http://www.w3.org/2000/svg" viewBox="0 0 400 300" width="400" height="300"><line x1="14.0" y1="276.0" x2="386.0" y2="276.0" stroke="#FFFFFF" stroke-width="3" stroke-linecap="round" stroke-opacity="0.35"/><rect x="176.0" y="250.0" width="40.0" height="26.0" rx="4" fill="#FFFFFF" fill-opacity="0.5"/><rect x="266.0" y="20.0" width="12.0" height="256.0" rx="2" fill="#FFFFFF" fill-opacity="0.4"/><polyline points="186.0,148.4 176.3,203.5 125.6,222.0 130.4,235.2" fill="none" stroke="#FFFFFF" stroke-width="14" stroke-linecap="round" stroke-linejoin="round" stroke-opacity="0.42"/><polyline points="186.0,76.4 225.5,90.7 262.9,97.3 272.8,99.1" fill="none" stroke="#FFFFFF" stroke-width="12" stroke-linecap="round" stroke-linejoin="round" stroke-opacity="0.42"/><line x1="176.3" y1="203.5" x2="125.6" y2="222.0" stroke="#CCFF3D" stroke-width="8" stroke-linecap="round" stroke-opacity="0.6"/><line x1="186.0" y1="148.4" x2="186.0" y2="76.4" stroke="#FFFFFF" stroke-width="26" stroke-linecap="round" stroke-opacity="1.0"/><line x1="186.0" y1="76.4" x2="186.0" y2="66.4" stroke="#FFFFFF" stroke-width="10" stroke-linecap="round" stroke-opacity="1.0"/><circle cx="186.0" cy="51.4" r="15" fill="#FFFFFF" fill-opacity="1.0"/><polyline points="186.0,148.4 186.0,204.4 186.0,258.4 199.6,262.0" fill="none" stroke="#FFFFFF" stroke-width="14" stroke-linecap="round" stroke-linejoin="round" stroke-opacity="1.0"/><polyline points="186.0,76.4 226.6,87.2 264.5,90.6 274.4,91.4" fill="none" stroke="#FFFFFF" stroke-width="12" stroke-linecap="round" stroke-linejoin="round" stroke-opacity="1.0"/><line x1="186.0" y1="204.4" x2="186.0" y2="258.4" stroke="#CCFF3D" stroke-width="8" stroke-linecap="round" stroke-opacity="1.0"/></svg>
