<svg xmlns="http://www.w3.org/2000/svg" viewBox="0 0 400 300" width="400" height="300"><line x1="14.0" y1="276.0" x2="386.0" y2="276.0" stroke="#FFFFFF" stroke-width="3" stroke-linecap="round" stroke-opacity="0.35"/><circle cx="198.9" cy="121.1" r="22" fill="#FFFFFF" fill-opacity="0.5"/><circle cx="198.9" cy="121.1" r="5" fill="#FFFFFF" fill-opacity="0.9"/><polyline points="226.8,2.3 226.8,-19.7" fill="none" stroke="#FFFFFF" stroke-width="3" stroke-linecap="round" stroke-linejoin="round" stroke-opacity="0.7"/><polyline points="231.9,-12.3 226.8,-19.7 221.7,-12.3" fill="none" stroke="#FFFFFF" stroke-width="3" stroke-linecap="round" stroke-linejoin="round" stroke-opacity="0.7"/><polyline points="201.4,109.2 196.5,165.0 194.6,219.0 205.4,228.0" fill="none" stroke="#FFFFFF" stroke-width="14" stroke-linecap="round" stroke-linejoin="round" stroke-opacity="0.42"/><polyline points="203.9,37.3 202.4,79.3 201.1,117.2 200.8,127.2" fill="none" stroke="#FFFFFF" stroke-width="12" stroke-linecap="round" stroke-linejoin="round" stroke-opacity="0.42"/><line x1="201.4" y1="109.2" x2="196.5" y2="165.0" stroke="#CCFF3D" stroke-width="8" stroke-linecap="round" stroke-opacity="0.6"/><line x1="201.4" y1="109.2" x2="203.9" y2="37.3" stroke="#FFFFFF" stroke-width="26" stroke-linecap="round" stroke-opacity="1.0"/><circle cx="201.4" cy="109.2" r="10" fill="#CCFF3D" fill-opacity="1.0"/><line x1="203.9" y1="37.3" x2="204.3" y2="27.3" stroke="#FFFFFF" stroke-width="10" stroke-linecap="round" stroke-opacity="1.0"/><circle cx="204.8" cy="12.3" r="15" fill="#FFFFFF" fill-opacity="1.0"/><polyline points="201.4,109.2 196.5,165.0 194.6,219.0 205.4,228.0" fill="none" stroke="#FFFFFF" stroke-width="14" stroke-linecap="round" stroke-linejoin="round" stroke-opacity="1.0"/><polyline points="203.9,37.3 200.3,79.1 198.9,117.1 198.6,127.1" fill="none" stroke="#FFFFFF" stroke-width="12" stroke-linecap="round" stroke-linejoin="round" stroke-opacity="1.0"/><line x1="201.4" y1="109.2" x2="196.5" y2="165.0" stroke="#CCFF3D" stroke-width="8" stroke-linecap="round" stroke-opacity="1.0"/></svg>
