<svg xmlns="http://www.w3.org/2000/svg" viewBox="0 0 400 300" width="400" height="300"><line x1="14.0" y1="276.0" x2="386.0" y2="276.0" stroke="#FFFFFF" stroke-width="3" stroke-linecap="round" stroke-opacity="0.35"/><rect x="58.0" y="229.0" width="80.0" height="10.0" rx="4" fill="#FFFFFF" fill-opacity="0.6"/><rect x="68.0" y="239.0" width="8.0" height="37.0" rx="2" fill="#FFFFFF" fill-opacity="0.45"/><rect x="120.0" y="239.0" width="8.0" height="37.0" rx="2" fill="#FFFFFF" fill-opacity="0.45"/><polyline points="228.0,220.0 176.1,241.0 126.0,261.2 113.0,266.5" fill="none" stroke="#FFFFFF" stroke-width="14" stroke-linecap="round" stroke-linejoin="round" stroke-opacity="1.0"/><polyline points="300.0,220.0 332.2,193.0 303.1,217.4 295.4,223.9" fill="none" stroke="#FFFFFF" stroke-width="12" stroke-linecap="round" stroke-linejoin="round" stroke-opacity="1.0"/><line x1="228.0" y1="220.0" x2="176.1" y2="241.0" stroke="#CCFF3D" stroke-width="8" stroke-linecap="round" stroke-opacity="1.0"/><line x1="228.0" y1="220.0" x2="300.0" y2="220.0" stroke="#FFFFFF" stroke-width="26" stroke-linecap="round" stroke-opacity="1.0"/><line x1="228.0" y1="220.0" x2="300.0" y2="220.0" stroke="#CCFF3D" stroke-width="18" stroke-linecap="round" stroke-opacity="1.0"/><line x1="300.0" y1="220.0" x2="310.0" y2="220.0" stroke="#FFFFFF" stroke-width="10" stroke-linecap="round" stroke-opacity="1.0"/><circle cx="325.0" cy="220.0" r="15" fill="#FFFFFF" fill-opacity="1.0"/><polyline points="228.0,220.0 172.0,220.0 118.0,220.0 104.0,220.0" fill="none" stroke="#FFFFFF" stroke-width="14" stroke-linecap="round" stroke-linejoin="round" stroke-opacity="1.0"/><polyline points="300.0,220.0 300.0,262.0 338.0,262.0 348.0,262.0" fill="none" stroke="#FFFFFF" stroke-width="12" stroke-linecap="round" stroke-linejoin="round" stroke-opacity="1.0"/><line x1="228.0" y1="220.0" x2="172.0" y2="220.0" stroke="#CCFF3D" stroke-width="8" stroke-linecap="round" stroke-opacity="1.0"/></svg>
