<svg xmlns="http://www.w3.org/2000/svg" viewBox="0 0 400 300" width="400" height="300"><line x1="14.0" y1="276.0" x2="386.0" y2="276.0" stroke="#FFFFFF" stroke-width="3" stroke-linecap="round" stroke-opacity="0.35"/><circle cx="203.7" cy="176.4" r="11" fill="#FFFFFF" fill-opacity="0.85"/><path d="M197.7,166.4 Q203.7,155.4 209.7,166.4" fill="none" stroke="#FFFFFF" stroke-opacity="0.85" stroke-width="4"/><polyline points="200.0,153.6 219.2,206.2 205.2,258.4 218.7,262.0" fill="none" stroke="#FFFFFF" stroke-width="14" stroke-linecap="round" stroke-linejoin="round" stroke-opacity="0.42"/><polyline points="200.0,81.6 192.7,123.0 196.0,160.8 196.9,170.8" fill="none" stroke="#FFFFFF" stroke-width="12" stroke-linecap="round" stroke-linejoin="round" stroke-opacity="0.42"/><line x1="200.0" y1="153.6" x2="200.0" y2="81.6" stroke="#FFFFFF" stroke-width="26" stroke-linecap="round" stroke-opacity="1.0"/><line x1="200.0" y1="153.6" x2="200.0" y2="81.6" stroke="#CCFF3D" stroke-width="18" stroke-linecap="round" stroke-opacity="1.0"/><line x1="200.0" y1="81.6" x2="200.0" y2="71.6" stroke="#FFFFFF" stroke-width="10" stroke-linecap="round" stroke-opacity="1.0"/><circle cx="200.0" cy="56.6" r="15" fill="#FFFFFF" fill-opacity="1.0"/><polyline points="200.0,153.6 180.8,206.2 180.8,260.2 194.8,260.2" fill="none" stroke="#FFFFFF" stroke-width="14" stroke-linecap="round" stroke-linejoin="round" stroke-opacity="1.0"/><polyline points="200.0,81.6 203.7,123.4 203.7,161.4 203.7,171.4" fill="none" stroke="#FFFFFF" stroke-width="12" stroke-linecap="round" stroke-linejoin="round" stroke-opacity="1.0"/></svg>
