<svg xmlns="http://www.w3.org/2000/svg" viewBox="0 0 400 300" width="400" height="300"><line x1="14.0" y1="276.0" x2="386.0" y2="276.0" stroke="#FFFFFF" stroke-width="3" stroke-linecap="round" stroke-opacity="0.35"/><polyline points="207.4,152.4 151.6,147.5 97.8,142.8 96.6,156.8" fill="none" stroke="#FFFFFF" stroke-width="14" stroke-linecap="round" stroke-linejoin="round" stroke-opacity="0.42"/><polyline points="278.7,142.4 278.7,184.4 278.7,222.4 278.7,232.4" fill="none" stroke="#FFFFFF" stroke-width="12" stroke-linecap="round" stroke-linejoin="round" stroke-opacity="0.42"/><line x1="207.4" y1="152.4" x2="151.6" y2="147.5" stroke="#CCFF3D" stroke-width="8" stroke-linecap="round" stroke-opacity="0.6"/><line x1="207.4" y1="152.4" x2="278.7" y2="142.4" stroke="#FFFFFF" stroke-width="26" stroke-linecap="round" stroke-opacity="1.0"/><circle cx="207.4" cy="152.4" r="10" fill="#CCFF3D" fill-opacity="1.0"/><line x1="278.7" y1="142.4" x2="288.6" y2="141.0" stroke="#FFFFFF" stroke-width="10" stroke-linecap="round" stroke-opacity="1.0"/><circle cx="303.4" cy="138.9" r="15" fill="#FFFFFF" fill-opacity="1.0"/><polyline points="207.4,152.4 212.3,208.2 207.5,262.0 221.5,262.0" fill="none" stroke="#FFFFFF" stroke-width="14" stroke-linecap="round" stroke-linejoin="round" stroke-opacity="1.0"/><polyline points="278.7,142.4 278.7,184.4 278.7,222.4 278.7,232.4" fill="none" stroke="#FFFFFF" stroke-width="12" stroke-linecap="round" stroke-linejoin="round" stroke-opacity="1.0"/><line x1="207.4" y1="152.4" x2="212.3" y2="208.2" stroke="#CCFF3D" stroke-width="8" stroke-linecap="round" stroke-opacity="1.0"/></svg>
